<svg width="93" height="25" viewBox="0 0 93 25" fill="none" xmlns="http://www.w3.org/2000/svg">
<path d="M16.8154 7.5561C16.5116 7.3026 16.1571 7.04911 15.8026 6.9475L15.195 18.8648L18.1315 10.6499C18.4353 9.38135 17.7268 8.31657 16.8154 7.5561ZM11.9551 6.84589L13.6765 18.7124L15.3978 6.84589C14.385 6.49132 13.0694 6.44052 11.9551 6.84589ZM10.5375 7.5561C9.57539 8.3171 8.91759 9.38188 9.17067 10.5991L12.1073 18.814L11.5504 6.9475C11.1958 7.04911 10.7906 7.3026 10.5375 7.5561ZM4.56395 8.67168C6.53841 12.12 8.56359 15.8721 10.4873 19.1681C9.829 16.278 9.12047 11.4606 8.10815 10.091C6.94313 8.46846 4.56395 8.67168 4.56395 8.67168ZM1.07048 10.3958L9.11995 19.7772L4.15871 8.72248C2.84258 8.77276 1.72828 9.43268 1.07048 10.3958ZM17.9292 12.9313L16.6131 19.3708C18.3344 16.3797 20.0558 13.4383 21.7265 10.3958C20.106 10.5477 18.4861 11.1563 17.9292 12.9313ZM22.1819 10.3958L17.9292 19.9291L25.4223 11.7649C24.5616 10.852 23.4473 10.4467 22.1819 10.3958ZM0.00743141 14.6555C2.64022 16.6834 5.27248 18.7632 7.90526 20.7912L0.817398 10.751C0.159069 11.8665 -0.0432905 13.1848 0.00743141 14.6555ZM26.3332 12.9313C26.1776 12.6135 25.9725 12.3225 25.7256 12.0692L19.2453 20.8923C21.7838 19.0015 24.2821 17.0571 26.7384 15.0603C26.7891 14.2999 26.6877 13.5399 26.3332 12.9313ZM0.057625 18.7632L6.89241 21.9062C4.61415 19.6248 2.33589 17.4439 0.057625 15.2127V18.7632ZM26.7384 18.9659V15.7203L20.2582 22.0597C22.4857 21.0441 24.5109 20.0302 26.7384 18.9659ZM0.00743141 21.9062C2.08333 22.3629 4.36159 22.9212 6.23461 23.3266L0.00743141 19.2189V21.9062ZM26.7384 22.0592V19.5745C24.8147 20.842 22.7895 22.11 21.0174 23.3774L26.7384 22.0592ZM0.00743141 25H6.08244L0.00743141 22.4137V25ZM26.7384 25V22.6164C24.764 23.4785 23.0426 24.1887 21.1696 25H26.7384Z" fill="#000060"/>
<path d="M24.6625 7.2518C24.7634 3.65157 19.3975 3.60076 19.4989 7.2518C19.4482 10.5985 24.8147 10.751 24.6625 7.2518ZM7.39857 5.37574C7.55074 1.7247 1.93064 1.87712 2.13353 5.37574C1.93117 9.02678 7.7531 9.07758 7.39857 5.37574ZM13.6765 6.08541C15.8026 6.13622 16.6131 4.61473 16.6633 3.14405C16.7647 0.912891 15.3471 0 13.6765 0C12.0058 0 10.6897 0.963696 10.7399 3.14405C10.7906 4.36177 11.2968 6.03461 13.6765 6.08541ZM44.154 14.5036H45.3185V7.75878H44.154V14.5036ZM41.9265 12.5762L42.5848 14.5036H43.7995L41.4705 7.75878H40.0027L38.0283 13.4891L36.1045 11.0547L38.6866 7.75878H37.3192L34.9395 10.9531V7.75878H33.775V14.5036H34.9395V11.2071L37.4202 14.5036H38.787L39.4453 12.5762H41.9265ZM40.6605 8.82356L41.6221 11.613H39.7491L40.6605 8.82356ZM52.6082 23.1239L51.4442 18.2049H49.3678V25H50.5328V19.2189L52.0011 25H53.2158L54.6841 19.2189V25H55.7973V18.2049H53.8234L52.6082 23.1239ZM58.735 18.2049L56.406 25H57.57L58.1776 23.0229H60.6582L61.3165 25H62.5312L60.2022 18.2049H58.735ZM58.4809 22.11L59.3923 19.2697L60.3539 22.11H58.4809ZM67.2906 23.4277L64.6076 18.2049H63.0379V25H64.1511V19.8783L66.8341 25H68.4039V18.2049H67.2906V23.4277ZM89.4651 23.986H86.6807V22.11H88.7053V21.0949H86.6807V19.2189H89.212V18.2049H85.5156V25H89.4651V23.986ZM78.58 18.2049V23.4785L75.897 18.2049H74.3272V23.986H70.7836V22.11H72.8589V21.0949H70.7836V19.2189H73.3149V18.2049H69.6185V25H75.4405V19.828L78.1245 25H79.6932V19.2189H81.7696V25H82.9336V19.2189H84.9593L84.9086 18.2049H78.58ZM47.6972 21.6025C48.0522 21.2479 48.3555 20.7912 48.3555 20.1318C48.3555 19.5232 48.0522 19.0167 47.6972 18.7124C47.2924 18.3568 46.7356 18.2049 45.7232 18.2049H43.7995V23.986H40.2051V22.11H42.281V21.0949H40.2051V19.2189H42.7364V18.2049H39.0406V25H44.964V22.11H45.5209C46.0783 22.9721 47.2422 25 47.2422 25H48.6096L46.7863 22.0078C47.1915 21.957 47.4446 21.8051 47.6972 21.6025ZM44.964 21.1468V19.2189H45.9256C46.8381 19.2189 47.1915 19.5745 47.1915 20.1318C47.1915 20.7912 46.8375 21.1468 45.9256 21.1468H44.964ZM57.1145 11.6633H57.7211C58.2278 12.4746 59.3917 14.5036 59.3917 14.5036H60.7591L58.9368 11.5617C59.3415 11.4606 59.6459 11.3082 59.8482 11.1055C60.2022 10.8012 60.5066 10.2942 60.5066 9.68565C60.5066 9.02678 60.253 8.57007 59.8482 8.26577C59.4425 7.91067 58.8866 7.75878 57.9245 7.75878H55.9495V13.5399H52.3551V11.613H54.4316V10.6493H52.3551V8.72248H54.9372V7.75931H51.2419V14.5041H57.1145V11.6633ZM57.1145 8.72248H58.1269C58.9875 8.72248 59.3415 9.07758 59.3415 9.68565C59.3415 10.345 58.9875 10.6493 58.1269 10.6493H57.1145V8.72248ZM37.6738 18.7124C37.2685 18.3568 36.7116 18.2049 35.7495 18.2049H33.775V25H34.9395V22.211H35.7495C36.7116 22.211 37.2685 22.0592 37.6738 21.7035C38.0278 21.349 38.3316 20.8414 38.3316 20.182C38.3351 19.9039 38.2781 19.6284 38.1645 19.3745C38.0509 19.1207 37.8834 18.8948 37.6738 18.7124ZM35.9017 21.1976H34.9395V19.2194H35.9017C36.8131 19.2194 37.1676 19.6258 37.1676 20.1826C37.1676 20.7912 36.7624 21.1976 35.9017 21.1976ZM50.4826 12.5762C50.4826 11.613 49.875 11.0044 48.7105 10.5477C47.7991 10.2434 47.3432 9.98994 47.3432 9.43215C47.3432 9.02625 47.7489 8.57007 48.6091 8.57007C49.1655 8.57007 49.7731 8.77275 50.0261 8.92517V7.96147C49.7731 7.80959 49.1655 7.65718 48.6091 7.65718C47.1408 7.65718 46.1787 8.46846 46.1787 9.53323C46.1787 10.5477 46.9384 11.105 48.0517 11.5109C48.9124 11.8152 49.3171 12.1195 49.3171 12.6773C49.3171 13.2351 48.8115 13.641 48.0015 13.641C47.3939 13.641 46.5834 13.4378 46.1792 13.1335V14.1982C46.5332 14.4009 47.2422 14.6047 47.9513 14.6047C49.6727 14.6047 50.4826 13.6415 50.4826 12.5762ZM90.2751 23.5796C90.2751 22.9213 90.7818 22.4137 91.439 22.4137C92.0974 22.4137 92.604 22.9213 92.604 23.5796C92.6065 23.7335 92.5781 23.8864 92.5205 24.0291C92.4628 24.1718 92.3771 24.3014 92.2684 24.4103C92.1597 24.5192 92.0303 24.605 91.8878 24.6628C91.7453 24.7205 91.5927 24.749 91.439 24.7465C90.7818 24.747 90.2751 24.2395 90.2751 23.5796ZM91.439 25C91.6254 25.0003 91.8099 24.9638 91.9821 24.8926C92.1543 24.8213 92.3108 24.7167 92.4426 24.5847C92.5743 24.4528 92.6787 24.2961 92.7499 24.1236C92.821 23.9511 92.8575 23.7662 92.8571 23.5796C92.8575 23.393 92.821 23.2082 92.7499 23.0358C92.6787 22.8633 92.5743 22.7067 92.4425 22.5748C92.3107 22.4429 92.1542 22.3384 91.982 22.2673C91.8098 22.1961 91.6253 22.1598 91.439 22.1602C91.2528 22.1598 91.0684 22.1963 90.8963 22.2674C90.7241 22.3386 90.5678 22.4431 90.4361 22.575C90.3044 22.7069 90.2001 22.8635 90.129 23.0359C90.0579 23.2083 90.0216 23.3931 90.022 23.5796C90.0216 23.7661 90.0579 23.951 90.129 24.1234C90.2 24.2959 90.3044 24.4526 90.436 24.5845C90.5677 24.7165 90.7241 24.8211 90.8962 24.8924C91.0683 24.9637 91.2528 25.0003 91.439 25ZM91.1357 23.6812H91.439L91.8448 24.3914H92.1481L91.6414 23.6812C91.895 23.6304 92.0974 23.5293 92.0974 23.2255C92.0974 22.9218 91.895 22.7688 91.4897 22.7688H90.8832V24.3914H91.1363L91.1357 23.6812ZM91.1357 23.4785V22.9721H91.4897C91.6414 22.9721 91.8448 23.0229 91.8448 23.2255C91.8448 23.479 91.6414 23.479 91.439 23.479L91.1357 23.4785Z" fill="#000060"/>
</svg>
