<svg width="97" height="25" viewBox="0 0 97 25" fill="none" xmlns="http://www.w3.org/2000/svg">
<path d="M51.1361 20.2124L51.3896 24.5279C50.0712 24.8492 48.7192 25.0002 47.3647 24.9774C43.1892 24.9774 40.9628 23.163 40.9628 18.7413C40.9628 15.2758 41.0261 11.4671 41.0578 9.38289H38.8948V6.11359C42.1433 5.55781 43.1654 3.66162 43.6487 0H47.222C47.0953 1.51205 46.9844 3.70248 46.9844 5.19001H50.7795V9.38289H46.9289V16.935C46.9289 19.861 47.4994 20.662 49.4564 20.662C50.0442 20.6613 50.6221 20.5066 51.1361 20.2124ZM71.0708 15.5292V11.7041C71.0708 6.80014 68.987 4.58519 63.0842 4.58519C59.7723 4.58519 57.4112 5.18184 53.7111 5.18184C53.9171 8.63095 53.925 12.8892 53.9092 15.521C53.8934 18.1528 53.822 23.0077 53.7111 24.5606H60.0497C59.907 23.0077 59.7723 18.5369 59.7961 15.521C59.7961 13.8046 59.7961 11.7286 59.8833 8.94153C60.626 8.68216 61.4048 8.54964 62.1889 8.54922C64.4074 8.54922 65.1205 9.61991 65.1205 12.5786V15.521C65.1205 18.2018 65.0333 23.0077 64.9224 24.5606H71.2609C71.1817 23.0077 71.0549 18.5369 71.0708 15.521V15.5292ZM28.666 16.3874C27.9846 16.3874 26.8278 16.3874 26.2415 16.3383V16.4691C26.2415 19.248 28.0084 21.0052 31.2806 21.0052C33.0579 20.9972 34.8026 20.5128 36.3435 19.5994L36.5733 23.9394C34.5755 24.6947 32.4569 25.0525 30.3299 24.9938C23.6823 24.9938 20.4893 22.6481 19.9347 16.2893C19.1424 16.2893 18.0331 16.2076 16.4723 16.1994C16.4326 17.3191 16.393 18.3081 16.393 19.1336C16.354 20.9472 16.4467 22.7613 16.6703 24.5606C13.0257 24.5606 10.205 24.9774 7.33685 24.9774C1.90948 24.9774 0 22.6562 0 18.7004C0 14.7445 3.06626 12.7911 9.69003 12.7911H10.6012V12.3825C10.6012 9.66895 9.80888 8.53287 7.13085 8.53287C5.31192 8.58884 3.53024 9.07839 1.92533 9.96319L1.70348 5.63137C3.90402 4.86353 6.219 4.5038 8.54117 4.56885C14.3488 4.56885 16.5356 6.5386 16.5356 11.9738V12.8565C17.9539 12.8565 18.9918 12.8565 19.9426 12.9464C20.5289 7.58477 23.1119 4.58519 29.6326 4.58519C35.0045 4.58519 37.4766 6.91457 37.4766 10.4209C37.5083 14.4993 34.5054 16.3874 28.666 16.3874ZM10.5457 20.9807C10.4507 19.6648 10.4903 17.7605 10.5061 16.134H9.7138C6.95654 16.134 5.85522 17.0903 5.85522 18.774C5.85522 20.4576 6.71884 21.2259 8.73925 21.2259C9.34877 21.2194 9.95531 21.1371 10.5457 20.9807ZM27.9767 13.0854C30.5279 13.0854 31.7481 12.2027 31.7481 10.3065C31.7481 8.95788 30.8607 8.22229 29.49 8.22229C27.0735 8.22229 26.2336 10.2166 26.2336 12.9383V13.0363C26.6931 13.0772 27.3428 13.0854 27.9529 13.0854H27.9767ZM90.1973 24.5279C86.5526 24.5279 83.732 24.9448 80.8638 24.9448C75.4364 24.9448 73.527 22.6236 73.527 18.6677C73.527 14.7118 76.5853 12.7584 83.217 12.7584H84.1281V12.3498C84.1281 9.63626 83.3358 8.50018 80.6578 8.50018C78.8389 8.55614 77.0572 9.0457 75.4523 9.9305L75.2304 5.59867C77.4425 4.82016 79.7714 4.45481 82.1077 4.51981C87.9233 4.51981 90.1022 6.48956 90.1022 11.9248C90.1022 14.8344 89.92 17.3273 89.92 19.0845C89.8628 20.9133 89.9396 22.7438 90.1497 24.5606L90.1973 24.5279ZM84.0806 20.948C83.9855 19.6321 84.0251 17.7278 84.041 16.1013H83.2487C80.4914 16.1013 79.3901 17.0576 79.3901 18.7413C79.3901 20.4249 80.2537 21.1932 82.2741 21.1932C82.8744 21.1955 83.4729 21.1242 84.0568 20.9807L84.0806 20.948ZM92.2019 8.77807C91.9883 8.52402 91.8242 8.22986 91.7185 7.9117C91.6058 7.57527 91.5496 7.22148 91.5522 6.86553C91.5503 6.50896 91.6093 6.15484 91.7265 5.81935C91.8385 5.51724 92.0052 5.23987 92.2177 5.00203C92.4402 4.75438 92.71 4.55681 93.01 4.42173C93.34 4.27943 93.6942 4.20616 94.0519 4.20616C94.4096 4.20616 94.7638 4.27943 95.0938 4.42173C95.3949 4.55495 95.6643 4.75274 95.8861 5.00203C96.0977 5.24069 96.2648 5.51694 96.3774 5.81935C96.4946 6.15446 96.554 6.50917 96.5517 6.86553C96.5532 7.22207 96.4942 7.57613 96.3774 7.9117C96.2695 8.23059 96.1027 8.52483 95.8861 8.77807C95.6636 9.02572 95.3938 9.22328 95.0938 9.35837C94.7638 9.50067 94.4096 9.57394 94.0519 9.57394C93.6942 9.57394 93.34 9.50067 93.01 9.35837C92.7034 9.227 92.4277 9.02908 92.2019 8.77807ZM93.1685 8.95788C93.4394 9.08543 93.7343 9.14963 94.0321 9.14586C94.3154 9.15268 94.5966 9.09464 94.8555 8.97593C95.1145 8.85722 95.3447 8.68078 95.5296 8.45931C95.7058 8.24538 95.8403 7.99839 95.9257 7.73189C96.0155 7.45526 96.061 7.16541 96.0604 6.8737C96.0571 6.59568 96.0117 6.3199 95.9257 6.05638C95.8393 5.79277 95.7049 5.54863 95.5296 5.33713C95.3551 5.12625 95.139 4.95626 94.8957 4.83856C94.6245 4.71685 94.3319 4.65403 94.0361 4.65403C93.7403 4.65403 93.4476 4.71685 93.1764 4.83856C92.9333 4.95669 92.7173 5.12661 92.5425 5.33713C92.3672 5.54863 92.2328 5.79277 92.1464 6.05638C92.0604 6.3199 92.015 6.59568 92.0117 6.8737C92.0045 7.3069 92.1054 7.73472 92.3048 8.11603C92.5024 8.4812 92.8039 8.77504 93.1685 8.95788ZM93.113 5.23088H93.9608C94.2965 5.19807 94.6322 5.2941 94.9036 5.5006C94.9961 5.58726 95.0694 5.69341 95.1187 5.81187C95.1679 5.93032 95.1918 6.05831 95.1889 6.18715C95.1914 6.31215 95.1726 6.43663 95.1334 6.55494C95.0817 6.7045 94.9943 6.83826 94.8794 6.94394C94.7645 7.04962 94.6257 7.12383 94.4758 7.15977L95.2681 8.47566C95.2263 8.50164 95.1809 8.52093 95.1334 8.53287H95.0067C94.9327 8.53307 94.8596 8.51632 94.7927 8.48383C94.7185 8.44323 94.6578 8.3806 94.6184 8.30402L93.9846 7.21698H93.5963V8.492H93.1289L93.113 5.23088ZM94.0559 6.72658C94.4837 6.72658 94.6976 6.5386 94.6976 6.15446C94.7024 6.08128 94.6897 6.00802 94.6607 5.94106C94.6317 5.87411 94.5873 5.81549 94.5313 5.77031C94.3667 5.66899 94.1756 5.62327 93.9846 5.63954H93.5726V6.70206L94.0559 6.72658Z" fill="#764393"/>
</svg>
