<svg width="136" height="25" viewBox="0 0 136 25" fill="none" xmlns="http://www.w3.org/2000/svg">
<path d="M123.676 19.4805C127.587 19.4805 130.758 16.2401 130.758 12.2427C130.758 8.24537 127.587 5.00488 123.676 5.00488C119.765 5.00488 116.594 8.24537 116.594 12.2427C116.594 16.2401 119.765 19.4805 123.676 19.4805Z" fill="white"/>
<path d="M76.8616 11.3397C75.5769 10.2581 73.9464 9.69964 72.2833 9.77169C70.5458 9.8088 68.9012 10.581 67.7418 11.9042C66.3994 13.434 65.6717 15.4253 65.7043 17.4799C65.6656 19.5104 66.4262 21.4718 67.8155 22.924C69.1146 24.2583 70.8834 25.0039 72.7252 24.9937C75.7151 25.0431 78.268 22.798 78.6659 19.7692V19.6375H77.5551V19.7378C77.2719 22.1155 75.3082 23.9104 72.9645 23.9338C70.8533 23.9338 69.6382 22.4536 69.6321 19.8821V16.4701H78.893V16.351C78.8132 14.1746 78.132 12.4874 76.8616 11.3397ZM74.9223 15.4102H69.6136V13.8735C69.5639 13.0015 69.8579 12.1455 70.4299 11.4965C70.9211 11.0058 71.5843 10.737 72.271 10.7501C73.9772 10.7501 74.9223 11.8728 74.9284 13.8861L74.9223 15.4102Z" fill="#0079C2"/>
<path d="M47.8697 21.701H46.8264V21.795C46.7543 22.7873 45.9586 23.5626 44.9853 23.5888C43.9481 23.5888 43.4203 22.8425 43.4142 21.3748V11.1766H46.765V10.1731H43.3651V5.78274H43.2423C42.4445 5.87055 40.8181 5.99599 39.9712 5.99599H39.8546V10.1857H37.5961V11.1892H39.8914V20.0702C39.8914 23.3442 41.2662 25 43.9665 25C47.0351 25 47.7163 22.5853 47.8452 21.864L47.8697 21.701Z" fill="#0079C2"/>
<path d="M35.5279 23.5951V14.5635C35.5737 13.2838 35.1111 12.0396 34.2453 11.1139C33.3292 10.223 32.1033 9.74217 30.8392 9.77797C29.083 9.73089 27.4176 10.5737 26.3897 12.0296V10.1856H20.7988V11.1703H22.9897V23.5951H19.0865L11.0775 0.0815353L11.0469 0H10.0649V0.0752634L2.20937 23.5951H0V24.5798H6.54833V23.5951H3.52886L5.70755 16.8778H12.7162L14.9255 23.5951H11.857V24.5798H28.593V23.5951H26.3897V16.6959C26.3897 12.5878 28.5439 11.0951 29.9861 11.0951C31.4283 11.0951 32.0911 12.0171 32.0911 13.8422V23.5951H30.072V24.5798H37.7496V23.5951H35.5279ZM9.12594 6.27195L12.4032 15.8429H6.05123L9.12594 6.27195Z" fill="#0079C2"/>
<path d="M63.0101 23.5951V14.4255C63.0101 12.2868 61.7336 9.78425 58.1495 9.78425C56.3139 9.70854 54.5416 10.4772 53.3195 11.8791V0.0752699H47.747V1.0976H49.8336V23.5951H47.5752V24.5798H55.4737V23.5951H53.3195V16.6081C53.3195 14.1934 54.1235 12.845 54.8047 12.1739C55.4227 11.5191 56.2713 11.1442 57.1614 11.1327C59.0762 11.1327 59.4874 12.7383 59.4874 14.0931V23.5951H57.3332V24.5798H65.2317V23.5951H63.0101Z" fill="#0079C2"/>
<path d="M102.619 23.5951V13.8673C102.619 11.3585 100.925 9.77797 98.2127 9.77797C96.4185 9.70226 94.6993 10.5177 93.5976 11.9669C92.8795 10.5369 91.4987 9.77797 89.5839 9.77797C87.871 9.73307 86.2162 10.4141 85.0117 11.6596V10.1668H79.341V11.1515H81.624V23.5951H79.3349V24.5798H87.0492V23.5951H85.0731V16.7273C85.1406 14.7328 85.2327 13.4471 85.9262 12.4624C86.5176 11.6508 87.4403 11.1608 88.4301 11.1327C89.1145 11.1067 89.7487 11.4985 90.0442 12.13C90.3113 12.9363 90.4116 13.7906 90.3388 14.6387V23.5951H88.2828V24.5798H95.8745V23.5951H93.8983V16.7273C93.9597 14.7328 94.0517 13.4471 94.7514 12.4624C95.3422 11.6501 96.2653 11.1599 97.2553 11.1327C97.9392 11.1025 98.5737 11.496 98.8633 12.13C99.1304 12.9363 99.2307 13.7906 99.1578 14.6387V23.5951H97.1142V24.5798H104.872V23.5951H102.619Z" fill="#0079C2"/>
<path d="M131.893 24.4606C131.215 24.4606 130.666 23.899 130.666 23.2062C130.666 22.5134 131.215 21.9518 131.893 21.9518C132.571 21.9518 133.121 22.5134 133.121 23.2062C133.121 23.899 132.571 24.4606 131.893 24.4606ZM131.893 24.6927C132.487 24.6927 133.021 24.3274 133.249 23.7673C133.476 23.2072 133.35 22.5624 132.931 22.1337C132.511 21.705 131.88 21.5768 131.332 21.8088C130.784 22.0408 130.427 22.5874 130.427 23.1937C130.443 24.0093 131.095 24.6615 131.893 24.6613V24.6927ZM131.562 23.2815H131.949L132.421 24.0404H132.661L132.163 23.2815C132.458 23.2815 132.679 23.1309 132.679 22.7985C132.679 22.4661 132.532 22.3281 132.096 22.3281H131.335V24.0404H131.55L131.562 23.2815ZM131.562 23.0808V22.5288H132.022C132.225 22.5288 132.415 22.5288 132.415 22.7923C132.415 23.0557 132.09 23.0808 131.857 23.0808H131.562Z" fill="#0079C2"/>
<path d="M107.326 24.4606C106.649 24.4606 106.099 23.899 106.099 23.2062C106.099 22.5134 106.649 21.9518 107.326 21.9518C108.004 21.9518 108.554 22.5134 108.554 23.2062C108.554 23.899 108.004 24.4606 107.326 24.4606ZM107.326 24.6927C108.136 24.6927 108.793 24.0215 108.793 23.1937C108.793 22.3658 108.136 21.6947 107.326 21.6947C106.516 21.6947 105.86 22.3658 105.86 23.1937C105.876 24.0093 106.528 24.6615 107.326 24.6613V24.6927ZM106.995 23.2815H107.345L107.817 24.0404H108.057L107.566 23.2815C107.854 23.2815 108.075 23.1309 108.075 22.7985C108.075 22.4661 107.934 22.3281 107.498 22.3281H106.786V24.0404H107.001L106.995 23.2815ZM106.995 23.0808V22.5288H107.449C107.652 22.5288 107.848 22.5288 107.848 22.7923C107.848 23.0557 107.523 23.0808 107.29 23.0808H106.995Z" fill="#0079C2"/>
<path d="M127.935 8.5424C127.224 7.69458 126.298 7.06315 125.259 6.71726C125.597 7.9152 124.897 7.97165 124.897 8.5424H127.935ZM121.921 6.72353C120.846 6.98674 119.898 7.63132 119.245 8.5424H122.283C122.283 8.00301 121.583 7.9152 121.921 6.72353ZM125.897 11.1892C125.652 11.2205 125.425 11.2519 125.652 11.6721C125.879 12.0923 127.91 16.0625 127.91 16.0625C129.063 14.6475 129.515 12.7698 129.138 10.9696C129.138 10.9696 126.1 11.1892 125.897 11.1892ZM121.276 11.1892C121.08 11.1892 118.017 10.9383 118.017 10.9383C117.637 12.7385 118.09 14.6174 119.245 16.0311C119.245 16.0311 121.282 12.1049 121.503 11.6721C121.724 11.2393 121.515 11.2205 121.276 11.1892ZM123.59 14.0115C123.393 14.0115 121.221 17.5113 121.221 17.5113C122.729 18.1966 124.451 18.1966 125.959 17.5113C125.959 17.5113 123.78 14.0115 123.59 14.0115ZM135.631 6.83015H128.929V0H118.293V6.83015H111.61V17.7245H118.293V24.561H128.929V17.7245H135.631V6.83015ZM119.005 7.45735C121.526 4.85773 125.62 4.79916 128.211 7.32564C128.817 7.91727 129.311 8.61915 129.666 9.39538H125.124C124.759 9.4183 124.4 9.29449 124.124 9.05042C123.841 8.71363 123.877 8.2073 124.204 7.9152C124.466 7.66843 124.553 7.28252 124.424 6.94311C124.294 6.60369 123.974 6.38024 123.617 6.38024C123.261 6.38024 122.941 6.60369 122.811 6.94311C122.682 7.28252 122.769 7.66843 123.031 7.9152C123.393 8.36051 123.375 8.77446 123.111 9.05042C122.837 9.29411 122.48 9.41798 122.117 9.39538H117.692C118.014 8.6891 118.452 8.04427 118.987 7.48871L119.005 7.45735ZM117.072 12.2178C117.069 11.4348 117.202 10.6575 117.465 9.92222C119.067 9.95358 120.497 10.1982 121.38 10.2484C122.264 10.2985 123.019 10.8191 122.381 12.0421C121.804 13.146 119.963 16.652 119.539 17.4674C117.981 16.2018 117.067 14.2832 117.054 12.2491L117.072 12.2178ZM123.663 18.9476C122.332 18.9484 121.031 18.5373 119.932 17.7684C120.491 16.9468 122.872 13.3781 123.001 13.1523C123.13 12.9265 123.308 12.6944 123.614 12.6944C123.921 12.6944 124.032 12.87 124.228 13.1523C124.424 13.4345 127.358 17.8186 127.358 17.8186C126.263 18.5787 124.969 18.9831 123.645 18.979L123.663 18.9476ZM127.683 17.5615C127.604 17.3858 125.455 13.2903 124.811 12.0672C124.167 10.8442 124.866 10.3299 125.818 10.2735C126.769 10.217 128.187 9.95986 129.837 9.9285C130.82 12.6808 129.949 15.7666 127.683 17.5615Z" fill="#0079C2"/>
</svg>
